{"title":"The.Tourist.2010.Cam.Lu","uid":6049177,"size":735452627,"categoryP":"video","categoryS":"movies","magnet":"?xt=urn:btih:4669648e270b977ea732cd900ea8a7351e67bc22&amp;dn=The.Tourist.2010.Cam.Lu&amp;tr=udp%3A%2F%2Ftracker.openbittorrent.com%3A80&amp;tr=udp%3A%2F%2Fopen.demonii.com%3A1337&amp;tr=udp%3A%2F%2Ftracker.coppersurfer.tk%3A6969&amp;tr=udp%3A%2F%2Fexodus.desync.com%3A6969","seeders":0,"leechers":0,"uploader":"SAFCukO09","files":52,"time":1292663579,"description":"\nGeneral\n\nComplete name : The.Tourist.2010.Cam.Lu.avi\n\nFormat : AVI\n\nFormat/Info : Audio Video Interleave\n\nFile size : 702 MiB\n\nDuration : 1h 35mn\n\nOverall bit rate : 1 022 Kbps\n\nDirector : TEAM-SERENiTY\n\nWriting application : MEncoder SVN-r30881(20100311-gcc4.3.3)\n\nWriting library : VirtualDub build 32706/release\n\nCopyright : TEAM-SERENiTY\n\n\n\nVideo\n\nID : 0\n\nFormat : MPEG-4 Visual\n\nFormat profile : Advanced Simple@L5\n\nFormat settings, BVOP : Yes\n\nFormat settings, QPel : No\n\nFormat settings, GMC : No warppoints\n\nFormat settings, Matrix : Default (H.263)\n\nMuxing mode : Packed bitstream\n\nCodec ID : XVID\n\nCodec ID/Hint : XviD\n\nDuration : 1h 35mn\n\nBit rate : 885 Kbps\n\nWidth : 704 pixels\n\nHeight : 302 pixels\n\nDisplay aspect ratio : 2.35:1\n\nFrame rate : 25.000 fps\n\nColor space : YUV\n\nChroma subsampling : 4:2:0\n\nBit depth : 8 bits\n\nScan type : Progressive\n\nCompression mode : Lossy\n\nBits/(Pixel*Frame) : 0.166\n\nStream size : 607 MiB (87%)\n\nWriting library : XviD 1.2.1 (UTC 2008-12-04)\n\n\n\nAudio\n\nID : 1\n\nFormat : MPEG Audio\n\nFormat version : Version 1\n\nFormat profile : Layer 3\n\nMode : Joint stereo\n\nMode extension : MS Stereo\n\nCodec ID : 55\n\nCodec ID/Hint : MP3\n\nDuration : 1h 35mn\n\nBit rate mode : Constant\n\nBit rate : 128 Kbps\n\nChannel(s) : 2 channels\n\nSampling rate : 48.0 KHz\n\nCompression mode : Lossy\n\nStream size : 87.8 MiB (13%)\n\nAlignment : Split accross interleaves\n\nInterleave, duration : 40 ms (1.00 video frame)\n\nInterleave, preload duration : 500 ms\n\n\n\nok this is english audio and my cam audio Lu and thanks for the video -SERENiTY \n\n\n\nnow with no work done on video i lev that for all theres so call encoders out there who cant\n\n\n\nget there own audio.\n\n\n\nwith that said it cam audio not line but will do till some line comes around\n","torrent":{"xt":"urn:btih:4669648e270b977ea732cd900ea8a7351e67bc22","amp;dn":"The.Tourist.2010.Cam.Lu","amp;tr":["udp%3A%2F%2Ftracker.openbittorrent.com%3A80","udp%3A%2F%2Fopen.demonii.com%3A1337","udp%3A%2F%2Ftracker.coppersurfer.tk%3A6969","udp%3A%2F%2Fexodus.desync.com%3A6969"],"infoHash":"4669648e270b977ea732cd900ea8a7351e67bc22","infoHashBuffer":{"type":"Buffer","data":[70,105,100,142,39,11,151,126,167,50,205,144,14,168,167,53,30,103,188,34]},"announce":[],"urlList":[]}}